#N canvas 875 72 1117 1052 12;
#X obj 442 417 / 4;
#X floatatom 440 468 5 0 0 0 - - -;
#X obj 442 528 osc~;
#X obj 446 592 *~;
#X obj 451 693 dac~;
#X msg 342 310 440;
#X msg 408 309 524;
#X msg 482 309 660;
#X msg 560 310 880;
#X obj 413 159 metro;
#X obj 406 185 random 4;
#X obj 402 219 route 0 1 2;
#X obj 567 173 random 4;
#X obj 576 219 * 200;
#X obj 491 45 tgl 15 0 empty empty empty 17 7 0 10 -262144 -1 -1 1
1;
#X obj 578 512 / 2;
#X obj 578 549 *;
#X obj 578 587 osc~;
#X floatatom 126 474 5 0 0 0 - - -;
#X obj 128 534 osc~;
#X obj 144 603 *~;
#X msg 28 316 440;
#X msg 94 315 524;
#X msg 168 315 660;
#X msg 246 316 880;
#X obj 99 165 metro;
#X obj 92 191 random 4;
#X obj 88 225 route 0 1 2;
#X obj 253 179 random 4;
#X obj 273 225 * 200;
#X obj 264 518 / 2;
#X obj 264 555 *;
#X obj 264 593 osc~;
#X obj 128 423 line;
#X obj 215 247 t f f;
#X connect 0 0 1 0;
#X connect 1 0 2 0;
#X connect 1 0 15 0;
#X connect 2 0 3 0;
#X connect 3 0 4 0;
#X connect 3 0 4 1;
#X connect 5 0 0 0;
#X connect 6 0 0 0;
#X connect 7 0 0 0;
#X connect 8 0 0 0;
#X connect 9 0 10 0;
#X connect 9 0 12 0;
#X connect 10 0 11 0;
#X connect 11 0 5 0;
#X connect 11 1 6 0;
#X connect 11 2 7 0;
#X connect 11 3 8 0;
#X connect 12 0 13 0;
#X connect 12 0 16 1;
#X connect 13 0 9 1;
#X connect 14 0 3 1;
#X connect 14 0 9 0;
#X connect 14 0 33 2;
#X connect 14 0 20 1;
#X connect 14 0 25 0;
#X connect 15 0 16 0;
#X connect 16 0 17 0;
#X connect 17 0 3 0;
#X connect 18 0 19 0;
#X connect 18 0 30 0;
#X connect 19 0 20 0;
#X connect 20 0 4 0;
#X connect 20 0 4 1;
#X connect 21 0 33 0;
#X connect 22 0 33 0;
#X connect 23 0 33 0;
#X connect 24 0 33 0;
#X connect 25 0 26 0;
#X connect 25 0 28 0;
#X connect 26 0 27 0;
#X connect 27 0 21 0;
#X connect 27 1 22 0;
#X connect 27 2 23 0;
#X connect 27 3 24 0;
#X connect 28 0 29 0;
#X connect 28 0 31 1;
#X connect 29 0 34 0;
#X connect 30 0 31 0;
#X connect 31 0 32 0;
#X connect 32 0 20 0;
#X connect 33 0 18 0;
#X connect 34 0 25 1;
#X connect 34 1 33 1;
